<?xml version="1.0" encoding="UTF-8"?>
<!DOCTYPE svg PUBLIC "-//W3C//DTD SVG 1.1//EN" "http://www.w3.org/Graphics/SVG/1.1/DTD/svg11.dtd">
<!-- Creator: CorelDRAW 2019 (64-Bit) -->
<svg xmlns="http://www.w3.org/2000/svg" xml:space="preserve" width="348px" height="90px" version="1.1" shape-rendering="geometricPrecision" text-rendering="geometricPrecision" image-rendering="optimizeQuality" fill-rule="evenodd" clip-rule="evenodd"
viewBox="0 0 83561 21619"
 xmlns:xlink="http://www.w3.org/1999/xlink">
 <g id="Layer_x0020_1">
  <metadata id="CorelCorpID_0Corel-Layer"/>
  <g id="_1652508482704">
   <path fill="#F3A75D" d="M73496 6586l6586 -6586c1747,1747 2728,4116 2728,6586 0,5145 -4170,9315 -9314,9315 -5145,0 -9315,-4170 -9315,-9315 0,-2470 981,-4839 2728,-6586l6587 6586z"/>
   <path fill="#201735" fill-rule="nonzero" d="M73496 1328c2779,0 5295,1127 7117,2948 1822,1822 2948,4338 2948,7118 0,2779 -1126,5296 -2948,7117 -1822,1822 -4338,2949 -7117,2949 -2780,0 -5296,-1127 -7118,-2949 -1821,-1821 -2948,-4338 -2948,-7117 0,-2780 1127,-5296 2948,-7118 1822,-1821 4338,-2948 7118,-2948zm6055 4010c-1550,-1549 -3691,-2507 -6055,-2507 -2365,0 -4506,958 -6056,2507 -1549,1550 -2508,3691 -2508,6056 0,2365 959,4506 2508,6055 1550,1550 3691,2508 6056,2508 2364,0 4505,-958 6055,-2508 1549,-1549 2508,-3690 2508,-6055 0,-2365 -959,-4506 -2508,-6056z"/>
   <path fill="#201735" fill-rule="nonzero" d="M46091 1556l8776 8776 8783 -8784c293,-293 769,-293 1062,0 147,147 220,339 220,531l0 18629c0,415 -336,752 -751,752l-18629 0c-415,0 -751,-337 -751,-752l0 -18629c0,-414 336,-751 751,-751 212,0 403,88 539,228zm8245 10369l-8033 -8032 0 16064 17127 0 0 -16064 -8032 8032c-294,293 -769,293 -1062,0z"/>
   <path fill="#201735" fill-rule="nonzero" d="M82059 3893l-8032 8032c-294,293 -769,293 -1062,0l-8033 -8032 0 16064 17127 0 0 -16064zm-8563 6439l8775 -8776c136,-140 327,-228 539,-228 415,0 751,337 751,751l0 18629c0,415 -336,752 -751,752l-18629 0c-415,0 -751,-337 -751,-752l0 -18629c0,-192 73,-384 220,-531 293,-293 769,-293 1062,0l8784 8784z"/>
   <path fill="#201735" fill-rule="nonzero" d="M54115 11394c0,-415 337,-751 752,-751 414,0 751,336 751,751l0 9314c0,415 -337,752 -751,752 -415,0 -752,-337 -752,-752l0 -9314z"/>
   <path fill="#201735" fill-rule="nonzero" d="M69520 11925c293,-293 769,-293 1062,0 293,293 293,769 0,1062l-3 0c-440,440 -1016,660 -1590,660 -575,0 -1151,-220 -1591,-660l-3 0c-293,-293 -293,-769 0,-1062 293,-293 769,-293 1062,0l-1 2c146,145 339,218 533,218 193,0 386,-73 532,-218l-1 -2z"/>
   <path fill="#201735" fill-rule="nonzero" d="M78534 11925c293,-293 769,-293 1062,0 293,293 293,769 0,1062 -440,440 -1017,660 -1593,660 -575,0 -1151,-220 -1591,-660l-3 0c-293,-293 -293,-769 0,-1062 294,-293 769,-293 1062,0l-1 2c146,145 339,218 533,218 192,0 384,-73 531,-220z"/>
   <polygon fill="#201735" points="72895,15527 74097,15527 73496,16497 "/>
   <path fill="#201735" fill-rule="nonzero" d="M72895 14776l1202 0c414,0 751,336 751,751 0,169 -56,324 -150,450l-566 913c-217,352 -678,461 -1030,244 -105,-66 -189,-153 -249,-253l-595 -961c-217,-351 -108,-812 243,-1029 123,-76 259,-112 394,-112l0 -3z"/>
   <path fill="#201735" fill-rule="nonzero" d="M7696 2219c160,-320 380,-480 660,-480l570 0c110,0 205,40 285,120 80,80 120,175 120,285l0 9691c0,110 -40,205 -120,285 -80,81 -175,120 -285,120l-615 0c-110,0 -205,-39 -285,-120 -80,-80 -120,-175 -120,-285l0 -7111 -2340 4516c-80,160 -168,280 -263,360 -95,80 -212,120 -352,120l-570 0c-140,0 -258,-40 -353,-120 -95,-80 -182,-200 -262,-360l-2341 -4516 0 7111c0,110 -40,205 -120,285 -80,81 -175,120 -285,120l-615 0c-110,0 -205,-39 -285,-120 -80,-80 -120,-175 -120,-285l0 -9691c0,-110 40,-205 120,-285 80,-80 175,-120 285,-120l570 0c280,0 500,160 660,480l3031 5866 3030 -5866zm6346 12512c-90,240 -235,360 -435,360l-615 0c-100,0 -185,-35 -255,-105 -70,-70 -105,-155 -105,-255 0,-40 5,-75 15,-105l1440 -3136 -2970 -6586c-10,-30 -15,-65 -15,-105 0,-100 35,-185 105,-255 70,-70 155,-105 255,-105l615 0c200,0 345,120 435,360l2310 5101 2340 -5101c91,-240 235,-360 435,-360l616 0c100,0 185,35 255,105 70,70 105,155 105,255 0,40 -5,75 -15,105l-4516 9827zm13922 -12512c160,-320 380,-480 660,-480l570 0c110,0 205,40 285,120 80,80 120,175 120,285l0 9691c0,110 -40,205 -120,285 -80,81 -175,120 -285,120l-615 0c-110,0 -205,-39 -285,-120 -80,-80 -120,-175 -120,-285l0 -7111 -2340 4516c-80,160 -168,280 -263,360 -95,80 -212,120 -352,120l-571 0c-140,0 -257,-40 -352,-120 -95,-80 -183,-200 -263,-360l-2340 -4516 0 7111c0,110 -40,205 -120,285 -80,81 -175,120 -285,120l-615 0c-110,0 -205,-39 -285,-120 -80,-80 -120,-175 -120,-285l0 -9691c0,-110 40,-205 120,-285 80,-80 175,-120 285,-120l570 0c280,0 500,160 660,480l3031 5866 3030 -5866zm10801 5416c21,220 31,460 31,720 0,240 -10,470 -31,690 -90,1020 -442,1833 -1057,2438 -615,605 -1448,907 -2498,907 -1050,0 -1883,-302 -2498,-907 -615,-605 -967,-1418 -1058,-2438 -10,-110 -14,-340 -14,-690 0,-370 4,-610 14,-720 81,-1020 431,-1833 1051,-2438 620,-605 1455,-908 2505,-908 1050,0 1885,303 2505,908 620,605 970,1418 1050,2438zm-1365 75c-60,-640 -272,-1155 -637,-1545 -365,-390 -883,-585 -1553,-585 -670,0 -1188,195 -1553,585 -365,390 -577,905 -637,1545 -10,120 -15,335 -15,645 0,300 5,505 15,615 60,640 272,1155 637,1545 365,390 883,585 1553,585 670,0 1188,-195 1553,-585 365,-390 577,-905 637,-1545 20,-220 30,-425 30,-615 0,-190 -10,-405 -30,-645z"/>
   <path fill="#201735" fill-rule="nonzero" d="M21747 19334c-923,-196 -1384,-667 -1384,-1413 0,-259 69,-496 208,-711 139,-215 347,-388 621,-517 275,-130 612,-195 1010,-195 392,0 730,57 1015,171 284,114 501,256 649,427 149,171 223,335 223,493 0,63 -25,118 -76,166 -50,47 -110,71 -180,71l-313 0c-120,0 -215,-44 -284,-133 -196,-253 -541,-379 -1034,-379 -291,0 -526,54 -706,161 -180,107 -270,256 -270,446 0,158 44,278 132,360 89,82 222,149 399,199 177,51 489,127 938,228 556,120 952,303 1185,550 234,246 351,546 351,900 0,260 -80,500 -241,721 -162,221 -392,400 -693,536 -300,136 -649,204 -1047,204 -392,0 -738,-62 -1039,-185 -300,-124 -532,-274 -697,-451 -164,-177 -246,-344 -246,-502 0,-63 25,-119 76,-166 50,-48 110,-71 180,-71l341 0c57,0 108,6 152,19 44,12 85,47 123,104 209,291 579,436 1110,436 297,0 557,-61 782,-185 224,-123 336,-276 336,-460 0,-151 -55,-273 -165,-365 -111,-91 -271,-167 -479,-227 -209,-60 -534,-138 -977,-232zm5737 2190c126,0 221,-79 284,-237l1887 -4400c6,-19 9,-41 9,-66 0,-63 -22,-117 -66,-161 -44,-45 -98,-67 -161,-67l-389 0c-126,0 -218,76 -275,228l-1470 3442 -1469 -3442c-57,-152 -162,-228 -313,-228l-351 0c-63,0 -117,22 -161,67 -44,44 -66,98 -66,161 0,25 3,47 9,66l1887 4400c63,158 161,237 294,237l351 0zm5129 -5026c677,0 1211,215 1603,645 392,430 588,1015 588,1754l0 256c0,70 -26,130 -76,181 -51,50 -111,75 -180,75l-3262 0 0 57c13,418 140,745 384,982 243,237 558,355 943,355 316,0 561,-41 735,-123 174,-82 330,-199 469,-351 51,-50 97,-85 138,-104 41,-19 96,-29 166,-29l284 0c76,0 140,26 190,76 50,51 73,111 66,180 -25,171 -118,346 -279,527 -161,180 -392,331 -693,455 -300,123 -659,185 -1076,185 -404,0 -765,-94 -1081,-280 -316,-187 -567,-444 -753,-773 -187,-329 -299,-698 -337,-1109 -13,-190 -19,-335 -19,-436 0,-102 6,-247 19,-437 38,-391 150,-746 337,-1062 186,-316 436,-565 749,-748 313,-184 674,-276 1085,-276zm1337 2115l0 -29c0,-385 -121,-693 -365,-924 -243,-231 -567,-346 -972,-346 -366,0 -678,117 -934,351 -256,233 -387,540 -393,919l0 29 2664 0zm-1441 -2731c-70,0 -130,-12 -180,-38 -51,-25 -108,-72 -171,-142l-872 -872c-32,-32 -48,-73 -48,-124 0,-101 51,-151 152,-151l199 0c57,0 105,8 143,23 37,16 88,43 151,81l721 484 720 -484c64,-38 114,-65 152,-81 38,-15 85,-23 142,-23l199 0c102,0 152,50 152,151 0,51 -16,92 -47,124l-873 872c-63,70 -120,117 -170,142 -51,26 -111,38 -180,38l-190 0zm4731 3982c0,272 56,481 166,626 111,146 321,218 631,218l502 0c70,0 130,26 181,76 50,51 75,111 75,180l0 304c0,69 -25,129 -75,180 -51,51 -111,76 -181,76l-597 0c-537,0 -932,-141 -1185,-422 -253,-281 -379,-694 -379,-1238l0 -2455 -702 0c-70,0 -130,-26 -180,-76 -51,-51 -76,-111 -76,-180l0 -304c0,-69 25,-129 76,-180 50,-51 110,-76 180,-76l702 0 0 -1545c0,-70 25,-130 76,-180 50,-51 110,-76 180,-76l350 0c70,0 130,25 181,76 50,50 75,110 75,180l0 1545 1205 0c69,0 129,25 180,76 50,51 76,111 76,180l0 304c0,69 -26,129 -76,180 -51,50 -111,76 -180,76l-1205 0 0 2455z"/>
  </g>
 </g>
</svg>
